<svg width="9" height="11" viewBox="0 0 9 11" fill="none" xmlns="http://www.w3.org/2000/svg">
<path d="M8.68469 8.138C8.89003 8.37133 8.99269 8.628 8.99269 8.908C8.99269 9.22533 8.86669 9.50533 8.61469 9.748C8.37203 9.98133 8.09669 10.098 7.78869 10.098C7.46203 10.098 7.17736 9.958 6.93469 9.678L4.52669 6.794L2.07669 9.678C1.83403 9.958 1.55403 10.098 1.23669 10.098C0.928693 10.098 0.648693 9.97667 0.396693 9.734C0.154027 9.49133 0.0326934 9.21133 0.0326934 8.894C0.0326934 8.62333 0.130693 8.37133 0.326693 8.138L3.01469 5.03L0.396693 1.992C0.19136 1.74933 0.0886934 1.49733 0.0886934 1.236C0.0886934 0.918666 0.210027 0.643333 0.452693 0.409999C0.704693 0.167333 0.98936 0.0459996 1.30669 0.0459996C1.63336 0.0459996 1.91803 0.186 2.16069 0.465999L4.52669 3.266L6.87869 0.465999C7.10269 0.186 7.37803 0.0459996 7.70469 0.0459996C8.02203 0.0459996 8.30203 0.167333 8.54469 0.409999C8.79669 0.643333 8.92269 0.918666 8.92269 1.236C8.92269 1.50667 8.82469 1.75867 8.62869 1.992L6.01069 5.03L8.68469 8.138Z" fill="white"/>
</svg>
