<svg width="150" height="102" viewBox="0 0 150 102" fill="none" xmlns="http://www.w3.org/2000/svg">
<path d="M0 16.5746C0 7.4207 7.4207 0 16.5746 0H83.7017C92.8555 0 100.276 7.4207 100.276 16.5746V85.3591C100.276 94.513 92.8555 101.934 83.7017 101.934H16.5746C7.4207 101.934 0 94.513 0 85.3591V16.5746Z" fill="#8615DF"/>
<path fill-rule="evenodd" clip-rule="evenodd" d="M83.7017 4.14365H16.5746C9.70917 4.14365 4.14365 9.70917 4.14365 16.5746V85.3591C4.14365 92.2245 9.70917 97.7901 16.5746 97.7901H83.7017C90.5671 97.7901 96.1326 92.2245 96.1326 85.3591V16.5746C96.1326 9.70917 90.5671 4.14365 83.7017 4.14365ZM16.5746 0C7.42069 0 0 7.4207 0 16.5746V85.3591C0 94.513 7.4207 101.934 16.5746 101.934H83.7017C92.8555 101.934 100.276 94.513 100.276 85.3591V16.5746C100.276 7.42069 92.8555 0 83.7017 0H16.5746Z" fill="white"/>
<path d="M14.1531 75.4142V28.2803H28.6558C32.7995 28.2803 36.5007 29.2191 39.7595 31.0966C43.0399 32.9527 45.5973 35.6072 47.4317 39.0602C49.2662 42.4917 50.1834 46.3979 50.1834 50.779V52.9479C50.1834 57.3289 49.277 61.2244 47.4641 64.6343C45.6728 68.0442 43.137 70.6879 39.8566 72.5655C36.5762 74.4431 32.875 75.3927 28.753 75.4142H14.1531ZM23.8647 36.1467V67.6125H28.5587C32.3571 67.6125 35.2598 66.3716 37.2669 63.8897C39.2739 61.4078 40.2991 57.8577 40.3422 53.2393V50.7466C40.3422 45.9555 39.3495 42.3298 37.364 39.8695C35.3785 37.3876 32.4758 36.1467 28.6558 36.1467H23.8647Z" fill="white"/>
<path d="M86.0453 52.9155C86.0453 57.5555 85.2252 61.6237 83.5851 65.1199C81.9449 68.6161 79.5925 71.3138 76.5279 73.2129C73.4849 75.1121 69.9887 76.0617 66.0393 76.0617C62.133 76.0617 58.6476 75.1229 55.5831 73.2453C52.5185 71.3677 50.1445 68.6916 48.4612 65.217C46.7778 61.7208 45.9253 57.7066 45.9038 53.1745V50.8437C45.9038 46.2037 46.7347 42.1248 48.3964 38.607C50.0798 35.0676 52.443 32.3592 55.486 30.4816C58.5505 28.5824 62.0467 27.6328 65.9746 27.6328C69.9024 27.6328 73.3878 28.5824 76.4308 30.4816C79.4954 32.3592 81.8585 35.0676 83.5203 38.607C85.2037 42.1248 86.0453 46.1929 86.0453 50.8113V52.9155ZM76.2042 50.779C76.2042 45.8368 75.3193 42.0816 73.5497 39.5134C71.78 36.9452 69.2549 35.6611 65.9746 35.6611C62.7157 35.6611 60.2015 36.9344 58.4318 39.4811C56.6621 42.0061 55.7665 45.7181 55.7449 50.6171V52.9155C55.7449 57.7282 56.6298 61.4618 58.3994 64.1163C60.1691 66.7708 62.7157 68.0981 66.0393 68.0981C69.2981 68.0981 71.8016 66.8248 73.5497 64.2782C75.2978 61.71 76.1826 57.9764 76.2042 53.0774V50.779Z" fill="white"/>
<path d="M112.678 46.2986V48.9046H118.634V61.2222H112.678V63.812H127.343V61.2222H121.629V46.2986H112.678ZM118.246 41.7018C118.246 42.1874 118.392 42.592 118.683 42.9157C118.985 43.2395 119.438 43.4013 120.043 43.4013C120.636 43.4013 121.084 43.2395 121.386 42.9157C121.688 42.592 121.839 42.1874 121.839 41.7018C121.839 41.432 121.796 41.1838 121.71 40.9572C121.624 40.7306 121.494 40.5418 121.321 40.3907C121.181 40.2504 121.003 40.1425 120.787 40.067C120.571 39.9807 120.323 39.9375 120.043 39.9375C119.762 39.9375 119.509 39.9807 119.282 40.067C119.066 40.1425 118.888 40.2504 118.748 40.3907C118.575 40.5526 118.446 40.7468 118.359 40.9734C118.284 41.2 118.246 41.4428 118.246 41.7018Z" fill="#0E0E0F"/>
<path d="M139.207 42.0579H136.196V46.2986H131.6V48.6133H136.196V58.1307C136.196 59.2098 136.337 60.1324 136.617 60.8985C136.909 61.6539 137.302 62.2689 137.799 62.7437C138.295 63.2293 138.878 63.5854 139.547 63.812C140.227 64.0278 140.955 64.1357 141.732 64.1357C142.196 64.1357 142.66 64.1142 143.124 64.071C143.599 64.0278 144.047 63.9631 144.468 63.8768C144.888 63.8012 145.277 63.7095 145.633 63.6016C145.989 63.4829 146.291 63.348 146.539 63.197L146.118 61.0766C145.935 61.1197 145.698 61.1737 145.406 61.2384C145.126 61.2924 144.824 61.3463 144.5 61.4003C144.165 61.4542 143.825 61.5028 143.48 61.546C143.135 61.5783 142.8 61.5945 142.477 61.5945C142.034 61.5945 141.613 61.5406 141.214 61.4327C140.826 61.3248 140.48 61.1359 140.178 60.8662C139.876 60.6072 139.639 60.2565 139.466 59.8141C139.293 59.3716 139.207 58.8105 139.207 58.1307V48.6133H145.876V46.2986H139.207V42.0579Z" fill="#0E0E0F"/>
<path d="M122.652 75.8289C122.652 77.8885 120.982 79.5582 118.923 79.5582C116.863 79.5582 115.193 77.8885 115.193 75.8289C115.193 73.7693 116.863 72.0996 118.923 72.0996C120.982 72.0996 122.652 73.7693 122.652 75.8289Z" fill="#0E0E0F"/>
<path d="M145.028 75.8289C145.028 77.8885 143.358 79.5582 141.298 79.5582C139.239 79.5582 137.569 77.8885 137.569 75.8289C137.569 73.7693 139.239 72.0996 141.298 72.0996C143.358 72.0996 145.028 73.7693 145.028 75.8289Z" fill="#0E0E0F"/>
</svg>
