<svg width="14" height="19" viewBox="0 0 14 19" fill="none" xmlns="http://www.w3.org/2000/svg">
<path d="M7.92334 5.03125V0.25H0.89209C0.399902 0.25 0.0483398 0.636719 0.0483398 1.09375V17.4062C0.0483398 17.8984 0.399902 18.25 0.89209 18.25H12.7046C13.1616 18.25 13.5483 17.8984 13.5483 17.4062V5.875H8.76709C8.2749 5.875 7.92334 5.52344 7.92334 5.03125ZM10.1733 13.3281C10.1733 13.5742 9.9624 13.75 9.75146 13.75H3.84521C3.59912 13.75 3.42334 13.5742 3.42334 13.3281V13.0469C3.42334 12.8359 3.59912 12.625 3.84521 12.625H9.75146C9.9624 12.625 10.1733 12.8359 10.1733 13.0469V13.3281ZM10.1733 11.0781C10.1733 11.3242 9.9624 11.5 9.75146 11.5H3.84521C3.59912 11.5 3.42334 11.3242 3.42334 11.0781V10.7969C3.42334 10.5859 3.59912 10.375 3.84521 10.375H9.75146C9.9624 10.375 10.1733 10.5859 10.1733 10.7969V11.0781ZM10.1733 8.54688V8.82812C10.1733 9.07422 9.9624 9.25 9.75146 9.25H3.84521C3.59912 9.25 3.42334 9.07422 3.42334 8.82812V8.54688C3.42334 8.33594 3.59912 8.125 3.84521 8.125H9.75146C9.9624 8.125 10.1733 8.33594 10.1733 8.54688ZM13.5483 4.53906C13.5483 4.32812 13.4429 4.11719 13.3022 3.94141L9.85693 0.496094C9.68115 0.355469 9.47021 0.25 9.25928 0.25H9.04834V4.75H13.5483V4.53906Z" fill="white"/>
</svg>
