<svg width="204" height="61" viewBox="0 0 204 61" fill="none" xmlns="http://www.w3.org/2000/svg">
<path d="M0 9.91736C0 4.44015 4.44015 0 9.91736 0H50.0826C55.5598 0 60 4.44015 60 9.91736V51.0744C60 56.5516 55.5598 60.9917 50.0826 60.9917H9.91736C4.44015 60.9917 0 56.5516 0 51.0744V9.91736Z" fill="#8615DF"/>
<path fill-rule="evenodd" clip-rule="evenodd" d="M50.0826 2.47934H9.91736C5.80945 2.47934 2.47934 5.80945 2.47934 9.91736V51.0744C2.47934 55.1823 5.80945 58.5124 9.91736 58.5124H50.0826C54.1905 58.5124 57.5207 55.1823 57.5207 51.0744V9.91736C57.5207 5.80945 54.1905 2.47934 50.0826 2.47934ZM9.91736 0C4.44015 0 0 4.44015 0 9.91736V51.0744C0 56.5516 4.44015 60.9917 9.91736 60.9917H50.0826C55.5598 60.9917 60 56.5516 60 51.0744V9.91736C60 4.44015 55.5598 0 50.0826 0H9.91736Z" fill="#8615DF"/>
<path d="M8.46851 45.124V16.9215H17.1462C19.6255 16.9215 21.8401 17.4832 23.79 18.6067C25.7529 19.7172 27.2831 21.3055 28.3807 23.3716C29.4783 25.4248 30.0271 27.7621 30.0271 30.3835V31.6813C30.0271 34.3027 29.4848 36.6335 28.4001 38.6738C27.3283 40.7141 25.811 42.296 23.8482 43.4194C21.8853 44.5429 19.6707 45.1111 17.2043 45.124H8.46851ZM14.2795 21.6284V40.4558H17.0881C19.3608 40.4558 21.0976 39.7133 22.2986 38.2283C23.4995 36.7433 24.1129 34.6191 24.1387 31.8556V30.3642C24.1387 27.4974 23.5447 25.328 22.3567 23.8559C21.1687 22.3709 19.4318 21.6284 17.1462 21.6284H14.2795Z" fill="white"/>
<path d="M51.485 31.6619C51.485 34.4383 50.9943 36.8724 50.0129 38.9644C49.0315 41.0563 47.624 42.6705 45.7903 43.8068C43.9695 44.9432 41.8776 45.5114 39.5145 45.5114C37.1772 45.5114 35.0917 44.9496 33.258 43.8262C31.4243 42.7027 30.0039 41.1015 28.9967 39.0225C27.9894 36.9305 27.4794 34.5287 27.4664 31.8169V30.4223C27.4664 27.6459 27.9636 25.2053 28.9579 23.1005C29.9652 20.9827 31.3791 19.3621 33.1999 18.2386C35.0336 17.1023 37.1255 16.5341 39.4757 16.5341C41.8259 16.5341 43.9114 17.1023 45.7322 18.2386C47.5659 19.3621 48.9799 20.9827 49.9742 23.1005C50.9814 25.2053 51.485 27.6395 51.485 30.4029V31.6619ZM45.5966 30.3835C45.5966 27.4264 45.0672 25.1795 44.0083 23.6428C42.9494 22.1061 41.4385 21.3378 39.4757 21.3378C37.5258 21.3378 36.0215 22.0997 34.9626 23.6234C33.9037 25.1343 33.3678 27.3554 33.3549 30.2867V31.6619C33.3549 34.5416 33.8843 36.7756 34.9432 38.3639C36.0021 39.9522 37.5258 40.7464 39.5145 40.7464C41.4644 40.7464 42.9623 39.9845 44.0083 38.4607C45.0543 36.9241 45.5837 34.6901 45.5966 31.7588V30.3835Z" fill="white"/>
<path d="M77.7045 38H71.517V20.5455H77.7557C79.5114 20.5455 81.0227 20.8949 82.2898 21.5938C83.5568 22.2869 84.5313 23.2841 85.2131 24.5852C85.9006 25.8864 86.2443 27.4432 86.2443 29.2557C86.2443 31.0739 85.9006 32.6364 85.2131 33.9432C84.5313 35.25 83.5511 36.2528 82.2727 36.9517C81 37.6506 79.4773 38 77.7045 38ZM75.2074 34.8381H77.5511C78.642 34.8381 79.5597 34.6449 80.304 34.2585C81.054 33.8665 81.6165 33.2614 81.9915 32.4432C82.3722 31.6193 82.5625 30.5568 82.5625 29.2557C82.5625 27.9659 82.3722 26.9119 81.9915 26.0938C81.6165 25.2756 81.0568 24.6733 80.3125 24.2869C79.5682 23.9006 78.6506 23.7074 77.5597 23.7074H75.2074V34.8381ZM92.6428 38.2472C91.8075 38.2472 91.0632 38.1023 90.4098 37.8125C89.7564 37.517 89.2393 37.0824 88.8587 36.5085C88.4837 35.929 88.2962 35.2074 88.2962 34.3438C88.2962 33.6165 88.4297 33.0057 88.6967 32.5114C88.9638 32.017 89.3274 31.6193 89.7876 31.3182C90.2479 31.017 90.7706 30.7898 91.3558 30.6364C91.9467 30.483 92.5661 30.375 93.2138 30.3125C93.9751 30.233 94.5888 30.1591 95.0547 30.0909C95.5206 30.017 95.8587 29.9091 96.0689 29.767C96.2791 29.625 96.3842 29.4148 96.3842 29.1364V29.0852C96.3842 28.5455 96.2138 28.1278 95.8729 27.8324C95.5376 27.5369 95.0604 27.3892 94.4411 27.3892C93.7876 27.3892 93.2678 27.5341 92.8814 27.8239C92.495 28.108 92.2393 28.4659 92.1143 28.8977L88.7564 28.625C88.9268 27.8295 89.2621 27.142 89.7621 26.5625C90.2621 25.9773 90.907 25.5284 91.6967 25.2159C92.4922 24.8977 93.4126 24.7386 94.4581 24.7386C95.1854 24.7386 95.8814 24.8239 96.5462 24.9943C97.2166 25.1648 97.8104 25.429 98.3274 25.7869C98.8501 26.1449 99.2621 26.6051 99.5632 27.1676C99.8643 27.7244 100.015 28.392 100.015 29.1705V38H96.5717V36.1847H96.4695C96.2592 36.5938 95.978 36.9545 95.6257 37.267C95.2734 37.5739 94.8501 37.8153 94.3558 37.9915C93.8615 38.1619 93.2905 38.2472 92.6428 38.2472ZM93.6825 35.7415C94.2166 35.7415 94.6882 35.6364 95.0973 35.4261C95.5064 35.2102 95.8274 34.9205 96.0604 34.5568C96.2933 34.1932 96.4098 33.7812 96.4098 33.321V31.9318C96.2962 32.0057 96.1399 32.0739 95.9411 32.1364C95.7479 32.1932 95.5291 32.2472 95.2848 32.2983C95.0405 32.3437 94.7962 32.3864 94.5518 32.4261C94.3075 32.4602 94.0859 32.4915 93.8871 32.5199C93.4609 32.5824 93.0888 32.6818 92.7706 32.8182C92.4524 32.9545 92.2053 33.1392 92.0291 33.3722C91.853 33.5994 91.7649 33.8835 91.7649 34.2244C91.7649 34.7188 91.9439 35.0966 92.3018 35.358C92.6655 35.6136 93.1257 35.7415 93.6825 35.7415ZM113.724 28.642L110.4 28.8466C110.343 28.5625 110.221 28.3068 110.033 28.0795C109.846 27.8466 109.599 27.6619 109.292 27.5256C108.991 27.3835 108.63 27.3125 108.21 27.3125C107.647 27.3125 107.173 27.4318 106.786 27.6705C106.4 27.9034 106.207 28.2159 106.207 28.608C106.207 28.9205 106.332 29.1847 106.582 29.4006C106.832 29.6165 107.261 29.7898 107.869 29.9205L110.238 30.3977C111.511 30.6591 112.46 31.0795 113.085 31.6591C113.71 32.2386 114.022 33 114.022 33.9432C114.022 34.8011 113.769 35.554 113.263 36.2017C112.763 36.8494 112.076 37.3551 111.201 37.7188C110.332 38.0767 109.329 38.2557 108.192 38.2557C106.46 38.2557 105.079 37.8949 104.05 37.1733C103.028 36.446 102.428 35.4574 102.252 34.2074L105.823 34.0199C105.931 34.5483 106.192 34.9517 106.607 35.2301C107.022 35.5028 107.553 35.6392 108.201 35.6392C108.837 35.6392 109.349 35.517 109.735 35.2727C110.127 35.0227 110.326 34.7017 110.332 34.3097C110.326 33.9801 110.187 33.7102 109.914 33.5C109.641 33.2841 109.221 33.1193 108.653 33.0057L106.386 32.554C105.107 32.2983 104.156 31.8551 103.531 31.2244C102.911 30.5937 102.602 29.7898 102.602 28.8125C102.602 27.9716 102.829 27.2472 103.283 26.6392C103.744 26.0312 104.388 25.5625 105.218 25.233C106.053 24.9034 107.031 24.7386 108.15 24.7386C109.803 24.7386 111.104 25.0881 112.053 25.7869C113.008 26.4858 113.565 27.4375 113.724 28.642ZM119.939 30.4318V38H116.308V20.5455H119.837V27.2188H119.99C120.286 26.446 120.763 25.8409 121.422 25.4034C122.081 24.9602 122.908 24.7386 123.902 24.7386C124.811 24.7386 125.604 24.9375 126.28 25.3352C126.962 25.7273 127.49 26.2926 127.865 27.0312C128.246 27.7642 128.433 28.642 128.428 29.6648V38H124.797V30.3125C124.803 29.5057 124.598 28.8778 124.183 28.429C123.774 27.9801 123.2 27.7557 122.462 27.7557C121.967 27.7557 121.53 27.8608 121.149 28.071C120.774 28.2812 120.479 28.5881 120.263 28.9915C120.053 29.3892 119.945 29.8693 119.939 30.4318ZM131.353 38V20.5455H134.984V27.108H135.094C135.254 26.7557 135.484 26.3977 135.785 26.0341C136.092 25.6648 136.489 25.358 136.978 25.1136C137.472 24.8636 138.086 24.7386 138.819 24.7386C139.773 24.7386 140.654 24.9886 141.461 25.4886C142.268 25.983 142.913 26.7301 143.396 27.7301C143.879 28.7244 144.12 29.9716 144.12 31.4716C144.12 32.9318 143.884 34.1648 143.413 35.1705C142.947 36.1705 142.31 36.929 141.504 37.446C140.702 37.9574 139.805 38.2131 138.81 38.2131C138.106 38.2131 137.506 38.0966 137.012 37.8636C136.523 37.6307 136.123 37.3381 135.81 36.9858C135.498 36.6278 135.259 36.267 135.094 35.9034H134.933V38H131.353ZM134.907 31.4545C134.907 32.233 135.015 32.9119 135.231 33.4915C135.447 34.071 135.759 34.5227 136.168 34.8466C136.577 35.1648 137.075 35.3239 137.66 35.3239C138.251 35.3239 138.751 35.1619 139.16 34.8381C139.569 34.5085 139.879 34.054 140.089 33.4744C140.305 32.8892 140.413 32.2159 140.413 31.4545C140.413 30.6989 140.308 30.0341 140.097 29.4602C139.887 28.8864 139.577 28.4375 139.168 28.1136C138.759 27.7898 138.256 27.6278 137.66 27.6278C137.069 27.6278 136.569 27.7841 136.16 28.0966C135.756 28.4091 135.447 28.8523 135.231 29.4261C135.015 30 134.907 30.6761 134.907 31.4545ZM152.457 38.2557C151.134 38.2557 149.989 37.9744 149.023 37.4119C148.063 36.8437 147.321 36.054 146.798 35.0426C146.276 34.0256 146.014 32.8466 146.014 31.5057C146.014 30.1534 146.276 28.9716 146.798 27.9602C147.321 26.9432 148.063 26.1534 149.023 25.5909C149.989 25.0227 151.134 24.7386 152.457 24.7386C153.781 24.7386 154.923 25.0227 155.884 25.5909C156.849 26.1534 157.594 26.9432 158.116 27.9602C158.639 28.9716 158.901 30.1534 158.901 31.5057C158.901 32.8466 158.639 34.0256 158.116 35.0426C157.594 36.054 156.849 36.8437 155.884 37.4119C154.923 37.9744 153.781 38.2557 152.457 38.2557ZM152.474 35.4432C153.077 35.4432 153.58 35.2727 153.983 34.9318C154.386 34.5852 154.69 34.1136 154.895 33.517C155.105 32.9205 155.21 32.2415 155.21 31.4801C155.21 30.7188 155.105 30.0398 154.895 29.4432C154.69 28.8466 154.386 28.375 153.983 28.0284C153.58 27.6818 153.077 27.5085 152.474 27.5085C151.866 27.5085 151.355 27.6818 150.94 28.0284C150.531 28.375 150.222 28.8466 150.011 29.4432C149.807 30.0398 149.705 30.7188 149.705 31.4801C149.705 32.2415 149.807 32.9205 150.011 33.517C150.222 34.1136 150.531 34.5852 150.94 34.9318C151.355 35.2727 151.866 35.4432 152.474 35.4432ZM164.994 38.2472C164.159 38.2472 163.415 38.1023 162.761 37.8125C162.108 37.517 161.591 37.0824 161.21 36.5085C160.835 35.929 160.648 35.2074 160.648 34.3438C160.648 33.6165 160.781 33.0057 161.048 32.5114C161.315 32.017 161.679 31.6193 162.139 31.3182C162.599 31.017 163.122 30.7898 163.707 30.6364C164.298 30.483 164.918 30.375 165.565 30.3125C166.327 30.233 166.94 30.1591 167.406 30.0909C167.872 30.017 168.21 29.9091 168.42 29.767C168.631 29.625 168.736 29.4148 168.736 29.1364V29.0852C168.736 28.5455 168.565 28.1278 168.224 27.8324C167.889 27.5369 167.412 27.3892 166.793 27.3892C166.139 27.3892 165.619 27.5341 165.233 27.8239C164.847 28.108 164.591 28.4659 164.466 28.8977L161.108 28.625C161.278 27.8295 161.614 27.142 162.114 26.5625C162.614 25.9773 163.259 25.5284 164.048 25.2159C164.844 24.8977 165.764 24.7386 166.81 24.7386C167.537 24.7386 168.233 24.8239 168.898 24.9943C169.568 25.1648 170.162 25.429 170.679 25.7869C171.202 26.1449 171.614 26.6051 171.915 27.1676C172.216 27.7244 172.366 28.392 172.366 29.1705V38H168.923V36.1847H168.821C168.611 36.5938 168.33 36.9545 167.977 37.267C167.625 37.5739 167.202 37.8153 166.707 37.9915C166.213 38.1619 165.642 38.2472 164.994 38.2472ZM166.034 35.7415C166.568 35.7415 167.04 35.6364 167.449 35.4261C167.858 35.2102 168.179 34.9205 168.412 34.5568C168.645 34.1932 168.761 33.7812 168.761 33.321V31.9318C168.648 32.0057 168.491 32.0739 168.293 32.1364C168.099 32.1932 167.881 32.2472 167.636 32.2983C167.392 32.3437 167.148 32.3864 166.903 32.4261C166.659 32.4602 166.438 32.4915 166.239 32.5199C165.813 32.5824 165.44 32.6818 165.122 32.8182C164.804 32.9545 164.557 33.1392 164.381 33.3722C164.205 33.5994 164.116 33.8835 164.116 34.2244C164.116 34.7188 164.295 35.0966 164.653 35.358C165.017 35.6136 165.477 35.7415 166.034 35.7415ZM175.183 38V24.9091H178.703V27.1932H178.839C179.078 26.3807 179.479 25.767 180.041 25.3523C180.604 24.9318 181.251 24.7216 181.984 24.7216C182.166 24.7216 182.362 24.733 182.572 24.7557C182.783 24.7784 182.967 24.8097 183.126 24.8494V28.071C182.956 28.0199 182.72 27.9744 182.419 27.9347C182.118 27.8949 181.842 27.875 181.592 27.875C181.058 27.875 180.581 27.9915 180.161 28.2244C179.746 28.4517 179.416 28.7699 179.172 29.179C178.933 29.5881 178.814 30.0597 178.814 30.5938V38H175.183ZM189.218 38.2131C188.224 38.2131 187.323 37.9574 186.516 37.446C185.715 36.929 185.079 36.1705 184.607 35.1705C184.141 34.1648 183.908 32.9318 183.908 31.4716C183.908 29.9716 184.15 28.7244 184.633 27.7301C185.116 26.7301 185.758 25.983 186.559 25.4886C187.366 24.9886 188.249 24.7386 189.21 24.7386C189.942 24.7386 190.553 24.8636 191.042 25.1136C191.536 25.358 191.934 25.6648 192.235 26.0341C192.542 26.3977 192.775 26.7557 192.934 27.108H193.045V20.5455H196.667V38H193.087V35.9034H192.934C192.763 36.267 192.522 36.6278 192.21 36.9858C191.903 37.3381 191.502 37.6307 191.008 37.8636C190.519 38.0966 189.923 38.2131 189.218 38.2131ZM190.369 35.3239C190.954 35.3239 191.448 35.1648 191.852 34.8466C192.261 34.5227 192.573 34.071 192.789 33.4915C193.011 32.9119 193.121 32.233 193.121 31.4545C193.121 30.6761 193.013 30 192.798 29.4261C192.582 28.8523 192.269 28.4091 191.86 28.0966C191.451 27.7841 190.954 27.6278 190.369 27.6278C189.772 27.6278 189.269 27.7898 188.86 28.1136C188.451 28.4375 188.141 28.8864 187.931 29.4602C187.721 30.0341 187.616 30.6989 187.616 31.4545C187.616 32.2159 187.721 32.8892 187.931 33.4744C188.147 34.054 188.457 34.5085 188.86 34.8381C189.269 35.1619 189.772 35.3239 190.369 35.3239Z" fill="#0E0E0F"/>
</svg>
